<svg width="537" height="531" viewBox="0 0 537 531" fill="none" xmlns="http://www.w3.org/2000/svg">
<defs>
<linearGradient id="paint0_linear_53_2" x1="333.084" y1="27.6259" x2="333.084" y2="277.709" gradientUnits="userSpaceOnUse">
<stop stop-color="#32E37F"/>
<stop offset="1" stop-color="#1988C5"/>
</linearGradient>
<linearGradient id="paint1_linear_53_2" x1="407.54" y1="249.086" x2="407.54" y2="503.681" gradientUnits="userSpaceOnUse">
<stop stop-color="#32E37F"/>
<stop offset="1" stop-color="#1988C5"/>
</linearGradient>
<linearGradient id="paint2_linear_53_2" x1="164.935" y1="182.924" x2="164.935" y2="503.618" gradientUnits="userSpaceOnUse">
<stop stop-color="#32E37F"/>
<stop offset="1" stop-color="#1988C5"/>
</linearGradient>
</defs>
<path d="M384.028 88.4043C403.697 89.9974 418.465 97.4882 428.538 110.808C410.446 122.479 401.369 138.699 401.555 159.277L401.555 159.28C401.73 175.775 407.717 189.589 419.471 200.525C424.316 205.138 429.688 208.804 435.617 211.525C434.427 214.891 433.181 218.132 431.87 221.258C428.15 229.88 423.753 237.807 418.664 245.087L420.303 246.233L418.664 245.087C411.631 255.151 405.973 261.965 401.717 265.674L401.696 265.693L401.675 265.712C395.074 271.804 388.142 274.814 380.811 274.991C375.491 274.987 368.92 273.46 361.093 270.23L361.087 270.228C352.91 266.88 345.298 265.182 338.255 265.182C330.897 265.182 323.079 266.875 314.805 270.225L314.803 270.226C306.785 273.483 300.516 275.097 295.874 275.255L295.865 275.256L295.856 275.256C288.974 275.55 281.908 272.533 274.607 265.719L274.584 265.698L274.56 265.677C269.926 261.621 264.01 254.55 256.813 244.339L256.81 244.336C249.188 233.573 242.902 221.065 237.966 206.762C232.686 191.325 230.053 176.42 230.053 162.026C230.053 145.545 233.599 131.447 240.615 119.689L240.62 119.681L240.625 119.673C246.144 110.22 253.467 102.787 262.635 97.3257C271.792 91.8706 281.672 89.0921 292.335 88.9114C298.001 88.9148 305.632 90.6873 315.366 94.3316C320.283 96.1837 324.353 97.5921 327.559 98.5403C330.699 99.4688 333.209 100.019 334.907 100.019C335.681 100.019 336.705 99.8288 337.846 99.553C339.035 99.2652 340.518 98.8413 342.282 98.2885C345.811 97.1825 350.551 95.5332 356.482 93.3491C367.535 89.3581 376.677 87.778 384.02 88.4037L384.028 88.4043ZM349.039 47.3342L349.048 47.3237C353.474 42.2256 359.128 37.9541 366.047 34.5257C372.24 31.4971 378.059 29.7155 383.506 29.1482C383.564 30.0998 383.591 31.0535 383.591 32.0069C383.591 43.9896 379.243 55.2303 370.425 65.7353C360.152 77.787 348.068 84.6741 335.179 84.2469C335.108 83.3275 335.069 82.3795 335.069 81.4024C335.069 69.9455 340.053 57.5418 349.039 47.3342Z" fill="url(#paint0_linear_53_2)" stroke="white" stroke-width="4"/>
<path d="M307.901 375.851L432.686 250.577H505.021L344.162 412.296L307.901 375.851ZM366.6 434.551L432.971 367.987H505.189L440.346 433.16L438.943 434.57L440.345 435.981L505.193 501.24H432.951L366.6 434.551Z" fill="url(#paint1_linear_53_2)" stroke="white" stroke-width="4"/>
<path d="M113.096 242.796C113.112 248.614 117.835 253.352 123.677 253.329C129.504 253.305 134.219 248.584 134.211 242.757L134.211 242.754C134.195 236.929 129.466 232.222 123.638 232.222L123.633 232.222C117.815 232.238 113.075 236.956 113.096 242.796ZM113.096 242.796L115.095 242.791L113.096 242.799C113.096 242.798 113.096 242.797 113.096 242.796ZM195.627 242.809C195.643 248.638 200.371 253.352 206.208 253.329C212.03 253.305 216.745 248.582 216.729 242.748C216.714 236.923 211.985 232.216 206.156 232.216L206.148 232.216C200.319 232.239 195.605 236.977 195.627 242.809ZM195.627 242.809L197.626 242.804L195.627 242.812C195.627 242.811 195.627 242.81 195.627 242.809ZM114.663 438.911V436.911H112.663H93.8491C85.2714 436.911 78.258 429.922 78.258 421.36V291.836H251.593V421.347C251.593 429.909 244.579 436.899 236.002 436.899H217.188H215.188V438.899V483.887C215.188 493.354 207.501 501.056 198.041 501.056H197.238C187.813 501.056 180.061 493.357 180.061 483.906V438.905V436.905H178.061H151.79H149.79V438.905V483.893C149.79 493.356 142.076 501.062 132.612 501.062H131.81C122.371 501.062 114.663 493.369 114.663 483.912V438.911ZM207.395 208.968L207.072 209.465V210.057V210.07H208.595L208.179 211.865C234.564 224.818 252.176 249.059 252.176 276.691C252.176 277.749 252.132 278.813 252.068 279.887H77.7627C77.6925 278.835 77.6559 277.775 77.6559 276.691C77.6559 249.058 95.2496 224.819 121.671 211.866L123.697 210.872L122.468 208.98L107.827 186.447V186.423L107.499 185.923C107.188 185.449 107.276 184.8 107.729 184.413L107.9 184.302C108.43 183.962 109.152 184.116 109.497 184.656L109.501 184.662L109.505 184.668L124.964 208.488L125.865 209.876L127.397 209.252C138.812 204.597 151.481 201.978 164.947 201.978L164.952 201.978C177.818 201.947 190.568 204.423 202.482 209.253L204.012 209.873L204.911 208.489L220.02 185.239L221.605 184.945L221.912 186.607L207.395 208.968ZM47.1464 288.77H47.9617C57.3903 288.77 65.0901 296.492 65.1081 305.891C65.1081 305.891 65.1081 305.892 65.1081 305.893L65.1081 389.209C65.1081 398.634 57.4127 406.328 47.9805 406.328H47.1464C37.6929 406.328 30 398.651 30 389.209V305.889C30 296.506 37.6971 288.77 47.1464 288.77ZM281.908 288.77H282.711C292.162 288.77 299.869 296.496 299.869 305.889V389.209C299.869 398.632 292.176 406.328 282.711 406.328H281.908C272.482 406.328 264.749 398.647 264.749 389.209V305.889C264.749 296.509 272.474 288.77 281.908 288.77Z" fill="url(#paint2_linear_53_2)" stroke="white" stroke-width="4"/>
</svg>
