<?xml version="1.0" encoding="utf-8"?>
<!-- Generator: Adobe Illustrator 23.1.0, SVG Export Plug-In . SVG Version: 6.00 Build 0)  -->
<svg version="1.1" id="Layer_1" xmlns="http://www.w3.org/2000/svg" xmlns:xlink="http://www.w3.org/1999/xlink" x="0px" y="0px"
	 viewBox="0 0 72 72" enable-background="new 0 0 72 72" xml:space="preserve">
<linearGradient id="Union_21_1_" gradientUnits="userSpaceOnUse" x1="-104.6395" y1="4.9522" x2="-104.6395" y2="5.9523" gradientTransform="matrix(60 0 0 57.45 6314.3701 -277.1601)">
	<stop  offset="0" style="stop-color:#32E37F"/>
	<stop  offset="1" style="stop-color:#1988C5"/>
</linearGradient>
<path id="Union_21" fill="url(#Union_21_1_)" d="M43.1,64.7c-2.6,0-4.7-2.1-4.7-4.7V23c0-2.6,2.1-4.7,4.7-4.7h18.2
	c2.6,0,4.7,2.1,4.7,4.7v37c0,2.6-2.1,4.7-4.7,4.7L43.1,64.7z M40.2,60.1c0,1.6,1.3,2.9,2.8,2.9h18.2c1.6,0,2.8-1.3,2.8-2.9v-4.2
	H40.2V60.1z M40.2,53.9h23.8V27.6H40.2V53.9z M40.2,23v2.7h23.9V23c0-1.6-1.3-2.9-2.8-2.9H43.1C41.5,20.1,40.2,21.4,40.2,23z
	 M49.2,59.4c0-1.6,1.3-2.9,2.9-2.9c1.6,0,2.9,1.3,2.9,2.9c0,1.6-1.3,2.9-2.9,2.9C50.6,62.3,49.2,61,49.2,59.4
	C49.2,59.4,49.2,59.4,49.2,59.4z M51.1,59.4c0,0.6,0.4,1,1,1l0,0c0.6,0,1-0.4,1-1l0,0c0-0.6-0.4-1-1-1l0,0
	C51.6,58.4,51.1,58.8,51.1,59.4L51.1,59.4z M20.2,59.9c-0.6,0-1.2-0.5-1.2-1.1c0-0.6,0.5-1.2,1.1-1.2c0,0,0,0,0,0h3l1.7-6H7.1
	C6.5,51.5,6,51,6,50.4V8.3c0-0.6,0.5-1.1,1.1-1.1h52.7c0.6,0,1,0.5,1,1.1v6.4c0,0.6-0.5,1.2-1.1,1.2c-0.6,0-1.2-0.5-1.2-1.1
	c0,0,0,0,0,0l0,0V9.6H8.3v31h26.4c0.6,0,1.1,0.5,1.1,1.1l0,0c0,0.6-0.5,1.1-1.1,1.1c0,0,0,0,0,0H8.3v6.4h26.4c0.6,0,1.1,0.5,1.2,1.1
	l0,0c0,0.6-0.5,1.1-1.1,1.2h-7.4l-1.7,6h9.1c0.6,0,1.1,0.5,1.2,1.1l0,0c0,0.6-0.5,1.1-1.1,1.2L20.2,59.9L20.2,59.9z M51.2,47.6h-0.1
	l0,0c-0.4-0.2-0.7-0.6-0.7-1L52,36.3c0.1-0.4,0.4-0.8,0.9-0.8c0.1,0,0.1,0,0.2,0c0.5,0.1,0.9,0.6,0.8,1.1l-1.5,10.1
	c-0.1,0.5-0.5,0.8-0.9,0.8L51.2,47.6L51.2,47.6z M47.9,45.7L47.9,45.7l-4.5-3.4l0,0c-0.1-0.1-0.1-0.1-0.2-0.2
	c-0.3-0.4-0.2-1,0.2-1.3l4.5-3.4l0,0c0.2-0.1,0.5-0.2,0.7-0.2l0,0c0.3,0,0.5,0.2,0.6,0.4c0.3,0.4,0.2,1-0.2,1.3l0,0l-3.5,2.6
	l3.5,2.6l0,0l0,0c0.4,0.3,0.5,0.9,0.2,1.3c-0.2,0.2-0.5,0.4-0.7,0.4C48.2,45.8,48,45.8,47.9,45.7L47.9,45.7z M55.1,45.5
	c-0.3-0.4-0.2-1,0.2-1.3l3.5-2.6l-3.5-2.6c-0.4-0.3-0.5-0.9-0.2-1.3c0.3-0.4,0.9-0.5,1.3-0.2c0,0,0,0,0,0l4.5,3.4
	c0.1,0.1,0.1,0.1,0.2,0.2c0.3,0.4,0.2,1-0.2,1.3l-4.5,3.4c-0.2,0.1-0.4,0.2-0.6,0.2C55.6,45.9,55.3,45.7,55.1,45.5z M21.4,32
	c-0.6-0.1-1-0.6-0.9-1.2c0,0,0,0,0,0l0,0l1.7-11.4c0.1-0.5,0.5-0.9,1-0.9c0,0,0.1,0,0.1,0h0.1c0.6,0.1,1,0.6,0.9,1.2l-1.7,11.4
	c-0.1,0.5-0.5,0.9-1,0.9H21.4L21.4,32z M25.7,29.7c-0.1-0.1-0.1-0.2-0.1-0.3c-0.1-0.2-0.1-0.5,0-0.7c0.1-0.2,0.2-0.4,0.4-0.5l4-3
	l-4-3c-0.2-0.1-0.3-0.3-0.4-0.5c-0.1-0.2-0.1-0.5,0-0.7c0-0.1,0.1-0.2,0.1-0.3c0.2-0.2,0.4-0.4,0.7-0.4c0.3,0,0.6,0,0.8,0.2l5.1,3.8
	c0.1,0.1,0.1,0.1,0.2,0.2c0.4,0.5,0.3,1.1-0.2,1.5l-5.1,3.8l0,0c-0.2,0.1-0.4,0.2-0.6,0.2C26.3,30.1,25.9,29.9,25.7,29.7L25.7,29.7z
	 M17.7,29.9L12.6,26c-0.5-0.4-0.6-1-0.2-1.5c0.1-0.1,0.1-0.1,0.2-0.2l5.1-3.8c0.2-0.2,0.5-0.2,0.8-0.2c0.3,0,0.5,0.2,0.7,0.4
	c0.4,0.5,0.3,1.1-0.1,1.5c0,0,0,0,0,0l-4,3l4,3l0,0c0.5,0.4,0.5,1,0.2,1.5C18.8,30.1,18.2,30.2,17.7,29.9L17.7,29.9z"/>
</svg>
